Title                            : G.I. Joe: The Rise of Cobra
Year                             : 2009
Genre                            : Action | Adventure | Sci-Fi
iMDB URL                         : http://www.imdb.com/title/tt1046173/

Complete name                    : G.I.Joe.The.Rise.of.Cobra.2009.DVDRIP.H264-ZEKTORM.mp4
Format                           : MPEG-4
Format profile                   : Base Media
Codec ID                         : isom
File size                        : 701 MiB
Duration                         : 1h 57mn
Overall bit rate                 : 831 Kbps
Subtitles                        : English, Spanish, French (Format: VobSub)

Video
Format                           : AVC
Format/Info                      : Advanced Video Codec
Format profile                   : High@L4.1
Format settings, CABAC           : Yes
Format settings, ReFrames        : 10 frames
Codec ID                         : avc1
Codec ID/Info                    : Advanced Video Coding
Duration                         : 1h 57mn
Bit rate mode                    : Variable
Bit rate                         : 746 Kbps
Maximum bit rate                 : 6201 Kbps
Width                            : 720 pixels
Height                           : 352 pixels
Display aspect ratio             : 2.426
Frame rate mode                  : Constant
Frame rate                       : 23.976 fps
Resolution                       : 24 bits
Colorimetry                      : 4:2:0
Scan type                        : Progressive
Bits/(Pixel*Frame)               : 0.123
Stream size                      : 630 MiB (90%)
Title                            : Video
Writing library                  : x264

Audio
Format                           : AAC
Format/Info                      : Advanced Audio Codec
Format version                   : Version 4
Format profile                   : LC
Format settings, SBR             : Yes
Format settings, PS              : No
Codec ID                         : 40
Duration                         : 1h 57mn
Bit rate mode                    : Variable
Bit rate                         : 81.7 Kbps
Maximum bit rate                 : 104 Kbps
Channel(s)                       : 2 channels
Channel positions                : L R
Sampling rate                    : 48.0 KHz
Resolution                       : 16 bits
Stream size                      : 69.0 MiB (10%)
Title                            : English
Language                         : English
